<svg width="1375" height="251" viewBox="0 0 1375 251" fill="none" xmlns="http://www.w3.org/2000/svg">
<g style="mix-blend-mode:exclusion">
<path d="M125 250.5H93.75H62.5H31.25H0V219.25H31.25H62.5H93.75V188H62.5H31.25H0V156.75V125.5V94.25V63V31.75V0.5H31.25H62.5V31.75V63V94.25V125.5V156.75H93.75V125.5V94.25V63V31.75V0.5H125H156.25V31.75V63V94.25V125.5V156.75V188V219.25V250.5H125ZM312.5 188H281.25H250H218.75H187.5V156.75V125.5V94.25V63V31.75V0.5H218.75H250H281.25H312.5H343.75V31.75V63V94.25V125.5V156.75V188H312.5ZM281.25 156.75V125.5V94.25V63V31.75H250V63V94.25V125.5V156.75H281.25ZM500 188H468.75H437.5H406.25H375V156.75V125.5V94.25V63V31.75V0.5H406.25H437.5V31.75V63V94.25V125.5V156.75H468.75V125.5V94.25V63V31.75V0.5H500H531.25V31.75V63V94.25V125.5V156.75V188H500ZM593.75 188H562.5V156.75V125.5V94.25V63V31.75V0.5H593.75H625H656.25H687.5H718.75V31.75V63H687.5H656.25V31.75H625V63V94.25V125.5V156.75V188H593.75ZM875 188H843.75H812.5H781.25H750V156.75V125.5H781.25H812.5V156.75H843.75V125.5V94.25H812.5H781.25H750V63V31.75V0.5H781.25H812.5H843.75H875H906.25V31.75H875H843.75H812.5V63H843.75H875H906.25V94.25V125.5V156.75V188H875ZM1062.5 156.75H1093.75V188H1062.5H1031.25H1000H968.75H937.5V156.75V125.5V94.25V63V31.75V0.5H968.75H1000H1031.25H1062.5H1093.75V31.75V63V94.25V125.5H1062.5H1031.25H1000V156.75H1031.25H1062.5ZM1031.25 94.25V63V31.75H1000V63V94.25H1031.25ZM1187.5 188H1156.25H1125V156.75V125.5V94.25V63V31.75V0.5H1156.25H1187.5V31.75V63V94.25V125.5V156.75H1218.75V188H1187.5ZM1312.5 188H1281.25V156.75V125.5V94.25H1250V63H1281.25V31.75V0.5H1312.5H1343.75H1375V31.75H1343.75V63H1375V94.25H1343.75V125.5V156.75V188H1312.5Z" fill="white"/>
</g>
</svg>
