<svg width="907" height="188" viewBox="0 0 907 188" fill="none" xmlns="http://www.w3.org/2000/svg">
<g style="mix-blend-mode:exclusion">
<path d="M31.25 188H0V156.75V125.5V94.25V63V31.75V0.5H31.25H62.5H93.75H125H156.25V31.75V63V94.25V125.5H125H93.75H62.5V156.75V188H31.25ZM93.75 94.25V63V31.75H62.5V63V94.25H93.75ZM218.75 188H187.5V156.75V125.5V94.25V63V31.75V0.5H218.75H250H281.25H312.5H343.75V31.75V63H312.5H281.25V31.75H250V63V94.25V125.5V156.75V188H218.75ZM500 188H468.75H437.5H406.25H375V156.75V125.5V94.25V63V31.75V0.5H406.25H437.5H468.75H500H531.25V31.75V63V94.25V125.5V156.75V188H500ZM468.75 156.75V125.5V94.25V63V31.75H437.5V63V94.25V125.5V156.75H468.75ZM687.5 188H656.25H625H593.75V156.75H562.5V125.5V94.25V63V31.75V0.5H593.75H625V31.75V63V94.25V125.5V156.75H656.25V125.5V94.25V63V31.75V0.5H687.5H718.75V31.75V63V94.25V125.5V156.75V188H687.5ZM875 156.75H906.25V188H875H843.75H812.5H781.25H750V156.75V125.5V94.25V63V31.75V0.5H781.25H812.5H843.75H875H906.25V31.75V63V94.25V125.5H875H843.75H812.5V156.75H843.75H875ZM843.75 94.25V63V31.75H812.5V63V94.25H843.75Z" fill="white"/>
</g>
</svg>
