<svg width="915" height="246" viewBox="0 0 915 246" fill="none" xmlns="http://www.w3.org/2000/svg">
<g filter="url(#filter0_d_73_444)">
<rect x="4" width="907" height="238" fill="black"/>
<rect x="7" y="3" width="901" height="232" stroke="white" stroke-width="6"/>
</g>
<path d="M51 63V34.2H63.8V37.4H54.2V47H63.8V50.2H54.2V63H51ZM63.8 47V37.4H67V47H63.8ZM70.1875 63V43.8H73.3875V47H76.5875V50.2H73.3875V63H70.1875ZM82.9875 47H76.5875V43.8H82.9875V47ZM86.1875 59.8V47H89.3875V59.8H86.1875ZM98.9875 59.8V63H89.3875V59.8H98.9875ZM98.9875 47H102.188V59.8H98.9875V47ZM98.9875 43.8V47H89.3875V43.8H98.9875ZM105.375 50.2V43.8H108.575V50.2H105.375ZM108.575 56.6V50.2H111.775V56.6H108.575ZM111.775 56.6H114.975V63H111.775V56.6ZM114.975 56.6V50.2H118.175V56.6H114.975ZM118.175 50.2V43.8H121.375V50.2H118.175ZM124.562 59.8V47H127.763V50.2H137.363V47H140.562V53.4H127.763V59.8H124.562ZM127.763 59.8H140.562V63H127.763V59.8ZM127.763 47V43.8H137.363V47H127.763ZM156.562 66.2V63H162.963V66.2H156.562ZM156.562 50.2V43.8H159.763V50.2H156.562ZM159.763 56.6V50.2H162.963V56.6H159.763ZM162.963 56.6H166.163V63H162.963V56.6ZM166.163 56.6V50.2H169.363V56.6H166.163ZM169.363 50.2V43.8H172.562V50.2H169.363ZM175.75 59.8V47H178.95V59.8H175.75ZM188.55 59.8V63H178.95V59.8H188.55ZM188.55 47H191.75V59.8H188.55V47ZM188.55 43.8V47H178.95V43.8H188.55ZM194.938 59.8V43.8H198.138V59.8H194.938ZM207.738 59.8V43.8H210.938V63H198.138V59.8H207.738ZM214.125 63V43.8H217.325V47H220.525V50.2H217.325V63H214.125ZM226.925 47H220.525V43.8H226.925V47ZM230.125 63V59.8H239.725V63H230.125ZM230.125 50.2V47H233.325V50.2H230.125ZM233.325 47V43.8H242.925V47H233.325ZM233.325 50.2H239.725V53.4H233.325V50.2ZM239.725 59.8V53.4H242.925V59.8H239.725ZM246.125 59.8V47H249.325V50.2H258.925V47H262.125V53.4H249.325V59.8H246.125ZM249.325 59.8H262.125V63H249.325V59.8ZM249.325 47V43.8H258.925V47H249.325ZM265.312 59.8V34.2H268.513V59.8H265.312ZM268.513 59.8H271.713V63H268.513V59.8ZM274.906 47V43.8H278.106V37.4H281.306V43.8H287.706V47H281.306V63H278.106V47H274.906ZM281.306 37.4V34.2H287.706V37.4H281.306ZM303.706 50.2V47H306.906V50.2H303.706ZM316.506 47V50.2H313.306V47H316.506ZM294.106 50.2V47H297.306V50.2H294.106ZM51 105V76.2H63.8V79.4H54.2V89H63.8V92.2H54.2V105H51ZM63.8 89V79.4H67V89H63.8ZM70.1875 105V85.8H73.3875V89H76.5875V92.2H73.3875V105H70.1875ZM82.9875 89H76.5875V85.8H82.9875V89ZM86.1875 101.8V89H89.3875V101.8H86.1875ZM98.9875 101.8V105H89.3875V101.8H98.9875ZM98.9875 89H102.188V101.8H98.9875V89ZM98.9875 85.8V89H89.3875V85.8H98.9875ZM105.375 92.2V85.8H108.575V92.2H105.375ZM108.575 98.6V92.2H111.775V98.6H108.575ZM111.775 98.6H114.975V105H111.775V98.6ZM114.975 98.6V92.2H118.175V98.6H114.975ZM118.175 92.2V85.8H121.375V92.2H118.175ZM124.562 101.8V89H127.763V92.2H137.363V89H140.562V95.4H127.763V101.8H124.562ZM127.763 101.8H140.562V105H127.763V101.8ZM127.763 89V85.8H137.363V89H127.763ZM156.562 89V85.8H159.763V79.4H162.963V85.8H169.363V89H162.963V101.8H159.763V89H156.562ZM162.963 101.8H169.363V105H162.963V101.8ZM172.562 101.8V89H175.763V101.8H172.562ZM185.363 101.8V105H175.763V101.8H185.363ZM185.363 89H188.562V101.8H185.363V89ZM185.363 85.8V89H175.763V85.8H185.363ZM204.562 105V85.8H223.763V89H217.363V105H214.163V89H207.763V105H204.562ZM223.763 105V89H226.963V105H223.763ZM230.156 101.8V89H233.356V92.2H242.956V89H246.156V95.4H233.356V101.8H230.156ZM233.356 101.8H246.156V105H233.356V101.8ZM233.356 89V85.8H242.956V89H233.356ZM262.156 108.2V105H268.556V108.2H262.156ZM262.156 92.2V85.8H265.356V92.2H262.156ZM265.356 98.6V92.2H268.556V98.6H265.356ZM268.556 98.6H271.756V105H268.556V98.6ZM271.756 98.6V92.2H274.956V98.6H271.756ZM274.956 92.2V85.8H278.156V92.2H274.956ZM281.344 101.8V89H284.544V101.8H281.344ZM294.144 101.8V105H284.544V101.8H294.144ZM294.144 89H297.344V101.8H294.144V89ZM294.144 85.8V89H284.544V85.8H294.144ZM300.531 101.8V85.8H303.731V101.8H300.531ZM313.331 101.8V85.8H316.531V105H303.731V101.8H313.331ZM332.531 101.8V95.4H335.731V101.8H332.531ZM332.531 89V85.8H345.331V89H332.531ZM335.731 101.8H345.331V95.4H335.731V92.2H345.331V89H348.531V105H335.731V101.8ZM351.719 105V85.8H354.919V89H358.119V92.2H354.919V105H351.719ZM364.519 89H358.119V85.8H364.519V89ZM367.719 101.8V89H370.919V92.2H380.519V89H383.719V95.4H370.919V101.8H367.719ZM370.919 101.8H383.719V105H370.919V101.8ZM370.919 89V85.8H380.519V89H370.919ZM399.719 105V101.8H409.319V105H399.719ZM399.719 92.2V89H402.919V92.2H399.719ZM402.919 89V85.8H412.519V89H402.919ZM402.919 92.2H409.319V95.4H402.919V92.2ZM409.319 101.8V95.4H412.519V101.8H409.319ZM415.719 89V85.8H418.919V79.4H422.119V85.8H428.519V89H422.119V101.8H418.919V89H415.719ZM422.119 101.8H428.519V105H422.119V101.8ZM431.719 105V85.8H434.919V89H438.119V92.2H434.919V105H431.719ZM444.519 89H438.119V85.8H444.519V89ZM447.719 101.8V89H450.919V101.8H447.719ZM460.519 101.8V105H450.919V101.8H460.519ZM460.519 89H463.719V101.8H460.519V89ZM460.519 85.8V89H450.919V85.8H460.519ZM466.906 105V85.8H479.706V89H470.106V105H466.906ZM479.706 105V89H482.906V105H479.706ZM486.094 108.2V105H498.894V108.2H486.094ZM486.094 98.6V89H489.294V98.6H486.094ZM489.294 98.6H498.894V89H489.294V85.8H502.094V105H498.894V101.8H489.294V98.6ZM518.094 101.8V89H521.294V92.2H530.894V89H534.094V95.4H521.294V101.8H518.094ZM521.294 101.8H534.094V105H521.294V101.8ZM521.294 89V85.8H530.894V89H521.294ZM537.281 105V85.8H550.081V89H540.481V105H537.281ZM550.081 105V89H553.281V105H550.081ZM556.469 101.8V89H559.669V101.8H556.469ZM569.269 101.8V105H559.669V101.8H569.269ZM569.269 89H572.469V101.8H569.269V89ZM569.269 85.8V89H559.669V85.8H569.269ZM575.656 101.8V85.8H578.856V101.8H575.656ZM588.456 101.8V85.8H591.656V105H578.856V101.8H588.456ZM594.844 108.2V105H607.644V108.2H594.844ZM594.844 98.6V89H598.044V98.6H594.844ZM598.044 98.6H607.644V89H598.044V85.8H610.844V105H607.644V101.8H598.044V98.6ZM614.031 105V76.2H617.231V85.8H626.831V89H617.231V105H614.031ZM626.831 105V89H630.031V105H626.831ZM646.031 89V85.8H649.231V79.4H652.431V85.8H658.831V89H652.431V101.8H649.231V89H646.031ZM652.431 101.8H658.831V105H652.431V101.8ZM662.031 101.8V89H665.231V101.8H662.031ZM674.831 101.8V105H665.231V101.8H674.831ZM674.831 89H678.031V101.8H674.831V89ZM674.831 85.8V89H665.231V85.8H674.831ZM694.031 105V101.8H703.631V105H694.031ZM694.031 92.2V89H697.231V92.2H694.031ZM697.231 89V85.8H706.831V89H697.231ZM697.231 92.2H703.631V95.4H697.231V92.2ZM703.631 101.8V95.4H706.831V101.8H703.631ZM710.031 101.8V85.8H713.231V101.8H710.031ZM722.831 101.8V85.8H726.031V105H713.231V101.8H722.831ZM729.219 105V85.8H732.419V89H735.619V92.2H732.419V105H729.219ZM742.019 89H735.619V85.8H742.019V89ZM745.219 92.2V85.8H748.419V92.2H745.219ZM748.419 98.6V92.2H751.619V98.6H748.419ZM751.619 98.6H754.819V105H751.619V98.6ZM754.819 98.6V92.2H758.019V98.6H754.819ZM758.019 92.2V85.8H761.219V92.2H758.019ZM764.406 105V85.8H767.606V105H764.406ZM764.406 82.6V79.4H767.606V82.6H764.406ZM770.812 92.2V85.8H774.013V92.2H770.812ZM774.013 98.6V92.2H777.213V98.6H774.013ZM777.213 98.6H780.413V105H777.213V98.6ZM780.413 98.6V92.2H783.613V98.6H780.413ZM783.613 92.2V85.8H786.812V92.2H783.613ZM790 101.8V89H793.2V92.2H802.8V89H806V95.4H793.2V101.8H790ZM793.2 101.8H806V105H793.2V101.8ZM793.2 89V85.8H802.8V89H793.2ZM812.388 105V101.8H815.588V105H812.388Z" fill="white"/>
<defs>
<filter id="filter0_d_73_444" x="0" y="0" width="915" height="246" filterUnits="userSpaceOnUse" color-interpolation-filters="sRGB">
<feFlood flood-opacity="0" result="BackgroundImageFix"/>
<feColorMatrix in="SourceAlpha" type="matrix" values="0 0 0 0 0 0 0 0 0 0 0 0 0 0 0 0 0 0 127 0" result="hardAlpha"/>
<feOffset dy="4"/>
<feGaussianBlur stdDeviation="2"/>
<feComposite in2="hardAlpha" operator="out"/>
<feColorMatrix type="matrix" values="0 0 0 0 0 0 0 0 0 0 0 0 0 0 0 0 0 0 0.25 0"/>
<feBlend mode="normal" in2="BackgroundImageFix" result="effect1_dropShadow_73_444"/>
<feBlend mode="normal" in="SourceGraphic" in2="effect1_dropShadow_73_444" result="shape"/>
</filter>
</defs>
</svg>
