<svg width="915" height="246" viewBox="0 0 915 246" fill="none" xmlns="http://www.w3.org/2000/svg">
<g filter="url(#filter0_d_73_229)">
<rect x="4" width="907" height="238" fill="black"/>
<rect x="7" y="3" width="901" height="232" stroke="white" stroke-width="6"/>
</g>
<path d="M51 40.6V34.2H54.2V40.6H51ZM54.2 47V40.6H57.4V47H54.2ZM57.4 63V47H60.6V63H57.4ZM60.6 47V40.6H63.8V47H60.6ZM63.8 40.6V34.2H67V40.6H63.8ZM70.2 63V59.8H73.4V63H70.2ZM83.0125 63V59.8H86.2125V63H83.0125ZM95.825 63V59.8H99.025V63H95.825ZM118.25 66.2V63H124.65V66.2H118.25ZM118.25 50.2V43.8H121.45V50.2H118.25ZM121.45 56.6V50.2H124.65V56.6H121.45ZM124.65 56.6H127.85V63H124.65V56.6ZM127.85 56.6V50.2H131.05V56.6H127.85ZM131.05 50.2V43.8H134.25V50.2H131.05ZM137.438 59.8V47H140.638V59.8H137.438ZM150.238 59.8V63H140.638V59.8H150.238ZM150.238 47H153.438V59.8H150.238V47ZM150.238 43.8V47H140.638V43.8H150.238ZM156.625 59.8V43.8H159.825V59.8H156.625ZM169.425 59.8V43.8H172.625V63H159.825V59.8H169.425ZM179.013 63V59.8H182.213V63H179.013ZM191.825 63V59.8H195.025V63H191.825ZM204.638 63V59.8H207.838V63H204.638ZM227.062 63V43.8H230.263V47H233.463V50.2H230.263V63H227.062ZM239.863 47H233.463V43.8H239.863V47ZM243.062 59.8V47H246.263V50.2H255.863V47H259.062V53.4H246.263V59.8H243.062ZM246.263 59.8H259.062V63H246.263V59.8ZM246.263 47V43.8H255.863V47H246.263ZM262.25 59.8V53.4H265.45V59.8H262.25ZM262.25 47V43.8H275.05V47H262.25ZM265.45 59.8H275.05V53.4H265.45V50.2H275.05V47H278.25V63H265.45V59.8ZM281.438 59.8V34.2H284.638V59.8H281.438ZM284.638 59.8H287.838V63H284.638V59.8ZM291.031 59.8V34.2H294.231V59.8H291.031ZM294.231 59.8H297.431V63H294.231V59.8ZM300.625 66.2V63H307.025V66.2H300.625ZM300.625 50.2V43.8H303.825V50.2H300.625ZM303.825 56.6V50.2H307.025V56.6H303.825ZM307.025 56.6H310.225V63H307.025V56.6ZM310.225 56.6V50.2H313.425V56.6H310.225ZM313.425 50.2V43.8H316.625V50.2H313.425ZM332.625 63V34.2H335.825V43.8H345.425V47H335.825V63H332.625ZM345.425 63V47H348.625V63H345.425ZM351.812 59.8V53.4H355.013V59.8H351.812ZM351.812 47V43.8H364.613V47H351.812ZM355.013 59.8H364.613V53.4H355.013V50.2H364.613V47H367.812V63H355.013V59.8ZM371 47V43.8H374.2V37.4H377.4V43.8H383.8V47H377.4V59.8H374.2V47H371ZM377.4 59.8H383.8V63H377.4V59.8ZM387 59.8V47H390.2V50.2H399.8V47H403V53.4H390.2V59.8H387ZM390.2 59.8H403V63H390.2V59.8ZM390.2 47V43.8H399.8V47H390.2ZM419 63V43.8H438.2V47H431.8V63H428.6V47H422.2V63H419ZM438.2 63V47H441.4V63H438.2ZM444.594 59.8V47H447.794V50.2H457.394V47H460.594V53.4H447.794V59.8H444.594ZM447.794 59.8H460.594V63H447.794V59.8ZM447.794 47V43.8H457.394V47H447.794ZM476.594 47V43.8H479.794V37.4H482.994V43.8H489.394V47H482.994V59.8H479.794V47H476.594ZM482.994 59.8H489.394V63H482.994V59.8ZM492.594 63V34.2H495.794V43.8H505.394V47H495.794V63H492.594ZM505.394 63V47H508.594V63H505.394ZM511.781 59.8V53.4H514.981V59.8H511.781ZM511.781 47V43.8H524.581V47H511.781ZM514.981 59.8H524.581V53.4H514.981V50.2H524.581V47H527.781V63H514.981V59.8ZM530.969 47V43.8H534.169V37.4H537.369V43.8H543.769V47H537.369V59.8H534.169V47H530.969ZM537.369 59.8H543.769V63H537.369V59.8ZM559.781 63V43.8H578.981V47H572.581V63H569.381V47H562.981V63H559.781ZM578.981 63V47H582.181V63H578.981ZM585.375 59.8V43.8H588.575V59.8H585.375ZM598.175 59.8V43.8H601.375V63H588.575V59.8H598.175ZM604.562 59.8V47H607.763V59.8H604.562ZM607.763 59.8H620.562V63H607.763V59.8ZM607.763 47V43.8H620.562V47H607.763ZM623.75 63V34.2H626.95V43.8H636.55V47H626.95V63H623.75ZM636.55 63V47H639.75V63H636.55ZM642.938 37.4V34.2H652.538V37.4H642.938ZM646.138 56.6H649.338V63H646.138V56.6ZM646.138 47H649.338V53.4H646.138V47ZM649.338 47V43.8H652.538V47H649.338ZM652.538 43.8V37.4H655.738V43.8H652.538ZM51 105V76.2H54.2V79.4H57.4V85.8H54.2V105H51ZM57.4 92.2V85.8H60.6V92.2H57.4ZM60.6 98.6V92.2H63.8V76.2H67V105H63.8V98.6H60.6ZM70.1875 101.8V89H73.3875V101.8H70.1875ZM82.9875 101.8V105H73.3875V101.8H82.9875ZM82.9875 89H86.1875V101.8H82.9875V89ZM82.9875 85.8V89H73.3875V85.8H82.9875ZM89.375 98.6V85.8H92.575V98.6H89.375ZM92.575 98.6H95.775V105H92.575V98.6ZM95.775 98.6V89H98.975V98.6H95.775ZM98.975 98.6H102.175V105H98.975V98.6ZM102.175 98.6V85.8H105.375V98.6H102.175ZM121.375 105V76.2H124.575V105H121.375ZM140.594 105V101.8H150.194V105H140.594ZM140.594 92.2V89H143.794V92.2H140.594ZM143.794 89V85.8H153.394V89H143.794ZM143.794 92.2H150.194V95.4H143.794V92.2ZM150.194 101.8V95.4H153.394V101.8H150.194ZM156.594 101.8V89H159.794V92.2H169.394V89H172.594V95.4H159.794V101.8H156.594ZM159.794 101.8H172.594V105H159.794V101.8ZM159.794 89V85.8H169.394V89H159.794ZM175.781 101.8V89H178.981V92.2H188.581V89H191.781V95.4H178.981V101.8H175.781ZM178.981 101.8H191.781V105H178.981V101.8ZM178.981 89V85.8H188.581V89H178.981ZM207.781 98.6V85.8H210.981V98.6H207.781ZM210.981 98.6H214.181V105H210.981V98.6ZM214.181 98.6V89H217.381V98.6H214.181ZM217.381 98.6H220.581V105H217.381V98.6ZM220.581 98.6V85.8H223.781V98.6H220.581ZM226.969 105V76.2H230.169V85.8H239.769V89H230.169V105H226.969ZM239.769 105V89H242.969V105H239.769ZM246.156 101.8V89H249.356V101.8H246.156ZM258.956 101.8V105H249.356V101.8H258.956ZM258.956 89H262.156V101.8H258.956V89ZM258.956 85.8V89H249.356V85.8H258.956ZM278.156 105V76.2H281.356V105H278.156ZM297.375 98.6V85.8H300.575V98.6H297.375ZM300.575 98.6H303.775V105H300.575V98.6ZM303.775 98.6V89H306.975V98.6H303.775ZM306.975 98.6H310.175V105H306.975V98.6ZM310.175 98.6V85.8H313.375V98.6H310.175ZM316.562 101.8V95.4H319.763V101.8H316.562ZM316.562 89V85.8H329.363V89H316.562ZM319.763 101.8H329.363V95.4H319.763V92.2H329.363V89H332.562V105H319.763V101.8ZM335.75 105V101.8H345.35V105H335.75ZM335.75 92.2V89H338.95V92.2H335.75ZM338.95 89V85.8H348.55V89H338.95ZM338.95 92.2H345.35V95.4H338.95V92.2ZM345.35 101.8V95.4H348.55V101.8H345.35ZM364.562 108.2V85.8H377.363V89H367.763V98.6H377.363V101.8H367.763V108.2H364.562ZM377.363 98.6V89H380.562V98.6H377.363ZM383.75 105V85.8H386.95V89H390.15V92.2H386.95V105H383.75ZM396.55 89H390.15V85.8H396.55V89ZM399.75 101.8V89H402.95V101.8H399.75ZM412.55 101.8V105H402.95V101.8H412.55ZM412.55 89H415.75V101.8H412.55V89ZM412.55 85.8V89H402.95V85.8H412.55ZM418.938 89V85.8H422.138V79.4H425.338V85.8H431.738V89H425.338V101.8H422.138V89H418.938ZM425.338 101.8H431.738V105H425.338V101.8ZM434.938 101.8V89H438.138V92.2H447.738V89H450.938V95.4H438.138V101.8H434.938ZM438.138 101.8H450.938V105H438.138V101.8ZM438.138 89V85.8H447.738V89H438.138ZM454.125 101.8V89H457.325V101.8H454.125ZM457.325 101.8H470.125V105H457.325V101.8ZM457.325 89V85.8H470.125V89H457.325ZM473.312 89V85.8H476.513V79.4H479.713V85.8H486.113V89H479.713V101.8H476.513V89H473.312ZM479.713 101.8H486.113V105H479.713V101.8ZM489.312 105V85.8H492.513V105H489.312ZM489.312 82.6V79.4H492.513V82.6H489.312ZM495.719 105V85.8H508.519V89H498.919V105H495.719ZM508.519 105V89H511.719V105H508.519ZM514.906 108.2V105H527.706V108.2H514.906ZM514.906 98.6V89H518.106V98.6H514.906ZM518.106 98.6H527.706V89H518.106V85.8H530.906V105H527.706V101.8H518.106V98.6ZM546.906 105V76.2H550.106V85.8H559.706V89H550.106V101.8H559.706V105H546.906ZM559.706 101.8V89H562.906V101.8H559.706ZM566.094 108.2V105H572.494V108.2H566.094ZM566.094 92.2V85.8H569.294V92.2H566.094ZM569.294 98.6V92.2H572.494V98.6H569.294ZM572.494 98.6H575.694V105H572.494V98.6ZM575.694 98.6V92.2H578.894V98.6H575.694ZM578.894 92.2V85.8H582.094V92.2H578.894ZM598.094 105V76.2H601.294V92.2H604.494V95.4H601.294V105H598.094ZM604.494 98.6V95.4H607.694V98.6H604.494ZM604.494 92.2V89H607.694V92.2H604.494ZM607.694 98.6H610.894V105H607.694V98.6ZM607.694 89V85.8H610.894V89H607.694ZM614.094 101.8V89H617.294V92.2H626.894V89H630.094V95.4H617.294V101.8H614.094ZM617.294 101.8H630.094V105H617.294V101.8ZM617.294 89V85.8H626.894V89H617.294ZM633.281 101.8V89H636.481V92.2H646.081V89H649.281V95.4H636.481V101.8H633.281ZM636.481 101.8H649.281V105H636.481V101.8ZM636.481 89V85.8H646.081V89H636.481ZM652.469 108.2V85.8H665.269V89H655.669V98.6H665.269V101.8H655.669V108.2H652.469ZM665.269 98.6V89H668.469V98.6H665.269ZM671.656 105V85.8H674.856V105H671.656ZM671.656 82.6V79.4H674.856V82.6H671.656ZM678.062 105V85.8H690.863V89H681.263V105H678.062ZM690.863 105V89H694.062V105H690.863ZM697.25 108.2V105H710.05V108.2H697.25ZM697.25 98.6V89H700.45V98.6H697.25ZM700.45 98.6H710.05V89H700.45V85.8H713.25V105H710.05V101.8H700.45V98.6ZM729.25 108.2V105H735.65V108.2H729.25ZM729.25 92.2V85.8H732.45V92.2H729.25ZM732.45 98.6V92.2H735.65V98.6H732.45ZM735.65 98.6H738.85V105H735.65V98.6ZM738.85 98.6V92.2H742.05V98.6H738.85ZM742.05 92.2V85.8H745.25V92.2H742.05ZM748.438 101.8V89H751.638V101.8H748.438ZM761.238 101.8V105H751.638V101.8H761.238ZM761.238 89H764.438V101.8H761.238V89ZM761.238 85.8V89H751.638V85.8H761.238ZM767.625 101.8V85.8H770.825V101.8H767.625ZM780.425 101.8V85.8H783.625V105H770.825V101.8H780.425ZM799.625 105V76.2H802.825V85.8H812.425V89H802.825V105H799.625ZM812.425 105V89H815.625V105H812.425ZM818.812 101.8V89H822.013V92.2H831.613V89H834.812V95.4H822.013V101.8H818.812ZM822.013 101.8H834.812V105H822.013V101.8ZM822.013 89V85.8H831.613V89H822.013ZM838 105V85.8H841.2V89H844.4V92.2H841.2V105H838ZM850.8 89H844.4V85.8H850.8V89ZM854 101.8V89H857.2V92.2H866.8V89H870V95.4H857.2V101.8H854ZM857.2 101.8H870V105H857.2V101.8ZM857.2 89V85.8H866.8V89H857.2ZM876.388 105V101.8H879.588V105H876.388ZM51 147V118.2H54.2V121.4H57.4V127.8H54.2V147H51ZM57.4 134.2V127.8H60.6V134.2H57.4ZM60.6 140.6V134.2H63.8V118.2H67V147H63.8V140.6H60.6ZM70.1875 143.8V131H73.3875V143.8H70.1875ZM82.9875 143.8V147H73.3875V143.8H82.9875ZM82.9875 131H86.1875V143.8H82.9875V131ZM82.9875 127.8V131H73.3875V127.8H82.9875ZM89.375 131V127.8H92.575V121.4H95.775V127.8H102.175V131H95.775V143.8H92.575V131H89.375ZM95.775 143.8H102.175V147H95.775V143.8ZM118.188 150.2V147H124.588V150.2H118.188ZM118.188 134.2V127.8H121.388V134.2H118.188ZM121.388 140.6V134.2H124.588V140.6H121.388ZM124.588 140.6H127.788V147H124.588V140.6ZM127.788 140.6V134.2H130.988V140.6H127.788ZM130.988 134.2V127.8H134.188V134.2H130.988ZM137.375 143.8V131H140.575V143.8H137.375ZM150.175 143.8V147H140.575V143.8H150.175ZM150.175 131H153.375V143.8H150.175V131ZM150.175 127.8V131H140.575V127.8H150.175ZM156.562 143.8V127.8H159.763V143.8H156.562ZM169.363 143.8V127.8H172.562V147H159.763V143.8H169.363ZM178.95 147V143.8H182.15V147H178.95ZM191.763 147V143.8H194.963V147H191.763ZM204.575 147V143.8H207.775V147H204.575ZM227 147V118.2H239.8V121.4H230.2V131H239.8V134.2H230.2V143.8H239.8V147H227ZM239.8 143.8V134.2H243V143.8H239.8ZM239.8 131V121.4H243V131H239.8ZM246.188 143.8V127.8H249.388V143.8H246.188ZM258.988 143.8V127.8H262.188V147H249.388V143.8H258.988ZM265.375 131V127.8H268.575V121.4H271.775V127.8H278.175V131H271.775V143.8H268.575V131H265.375ZM271.775 143.8H278.175V147H271.775V143.8ZM294.188 131V127.8H297.388V121.4H300.588V127.8H306.988V131H300.588V143.8H297.388V131H294.188ZM300.588 143.8H306.988V147H300.588V143.8ZM310.188 147V118.2H313.388V127.8H322.988V131H313.388V147H310.188ZM322.988 147V131H326.188V147H322.988ZM329.375 143.8V131H332.575V134.2H342.175V131H345.375V137.4H332.575V143.8H329.375ZM332.575 143.8H345.375V147H332.575V143.8ZM332.575 131V127.8H342.175V131H332.575ZM348.562 147V127.8H367.763V131H361.363V147H358.163V131H351.763V147H348.562ZM367.763 147V131H370.963V147H367.763ZM377.356 140.6H380.556V147H377.356V140.6ZM377.356 137.4V118.2H380.556V137.4H377.356Z" fill="white"/>
<defs>
<filter id="filter0_d_73_229" x="0" y="0" width="915" height="246" filterUnits="userSpaceOnUse" color-interpolation-filters="sRGB">
<feFlood flood-opacity="0" result="BackgroundImageFix"/>
<feColorMatrix in="SourceAlpha" type="matrix" values="0 0 0 0 0 0 0 0 0 0 0 0 0 0 0 0 0 0 127 0" result="hardAlpha"/>
<feOffset dy="4"/>
<feGaussianBlur stdDeviation="2"/>
<feComposite in2="hardAlpha" operator="out"/>
<feColorMatrix type="matrix" values="0 0 0 0 0 0 0 0 0 0 0 0 0 0 0 0 0 0 0.25 0"/>
<feBlend mode="normal" in2="BackgroundImageFix" result="effect1_dropShadow_73_229"/>
<feBlend mode="normal" in="SourceGraphic" in2="effect1_dropShadow_73_229" result="shape"/>
</filter>
</defs>
</svg>
