<svg width="915" height="246" viewBox="0 0 915 246" fill="none" xmlns="http://www.w3.org/2000/svg">
<g filter="url(#filter0_d_73_228)">
<rect x="4" width="907" height="238" fill="black"/>
<rect x="7" y="3" width="901" height="232" stroke="white" stroke-width="6"/>
</g>
<path d="M51 63V34.2H63.8V37.4H54.2V59.8H63.8V63H51ZM63.8 59.8V37.4H67V59.8H63.8ZM70.1875 59.8V47H73.3875V59.8H70.1875ZM82.9875 59.8V63H73.3875V59.8H82.9875ZM82.9875 47H86.1875V59.8H82.9875V47ZM82.9875 43.8V47H73.3875V43.8H82.9875ZM102.188 63V43.8H114.988V47H105.388V63H102.188ZM114.988 63V47H118.188V63H114.988ZM121.375 59.8V47H124.575V59.8H121.375ZM134.175 59.8V63H124.575V59.8H134.175ZM134.175 47H137.375V59.8H134.175V47ZM134.175 43.8V47H124.575V43.8H134.175ZM140.562 47V43.8H143.763V37.4H146.963V43.8H153.363V47H146.963V59.8H143.763V47H140.562ZM146.963 59.8H153.363V63H146.963V59.8ZM169.375 59.8V53.4H172.575V59.8H169.375ZM169.375 47V43.8H182.175V47H169.375ZM172.575 59.8H182.175V53.4H172.575V50.2H182.175V47H185.375V63H172.575V59.8ZM188.562 47V43.8H191.763V37.4H194.963V43.8H201.363V47H194.963V63H191.763V47H188.562ZM194.963 37.4V34.2H201.363V37.4H194.963ZM204.562 63V43.8H207.763V47H210.963V50.2H207.763V63H204.562ZM217.363 47H210.963V43.8H217.363V47ZM220.562 59.8V53.4H223.763V59.8H220.562ZM220.562 47V43.8H233.363V47H220.562ZM223.763 59.8H233.363V53.4H223.763V50.2H233.363V47H236.562V63H223.763V59.8ZM239.75 63V43.8H242.95V63H239.75ZM239.75 40.6V37.4H242.95V40.6H239.75ZM246.156 59.8V47H249.356V59.8H246.156ZM258.956 59.8V47H249.356V43.8H258.956V34.2H262.156V63H249.356V59.8H258.956ZM278.156 63V43.8H297.356V47H290.956V63H287.756V47H281.356V63H278.156ZM297.356 63V47H300.556V63H297.356ZM303.75 66.2V63H310.15V66.2H303.75ZM303.75 50.2V43.8H306.95V50.2H303.75ZM306.95 56.6V50.2H310.15V56.6H306.95ZM310.15 56.6H313.35V63H310.15V56.6ZM313.35 56.6V50.2H316.55V56.6H313.35ZM316.55 50.2V43.8H319.75V50.2H316.55ZM335.75 59.8V47H338.95V59.8H335.75ZM338.95 59.8H351.75V63H338.95V59.8ZM338.95 47V43.8H351.75V47H338.95ZM354.938 63V34.2H358.138V43.8H367.738V47H358.138V63H354.938ZM367.738 63V47H370.938V63H367.738ZM374.125 63V43.8H377.325V63H374.125ZM374.125 40.6V37.4H377.325V40.6H374.125ZM380.531 59.8V34.2H383.731V59.8H380.531ZM383.731 59.8H386.931V63H383.731V59.8ZM390.125 59.8V47H393.325V59.8H390.125ZM402.925 59.8V47H393.325V43.8H402.925V34.2H406.125V63H393.325V59.8H402.925ZM409.312 66.2V63H412.513V66.2H409.312ZM412.513 63V59.8H415.713V63H412.513ZM434.938 63V43.8H447.738V47H438.138V63H434.938ZM447.738 63V47H450.938V63H447.738ZM454.125 59.8V47H457.325V59.8H454.125ZM466.925 59.8V63H457.325V59.8H466.925ZM466.925 47H470.125V59.8H466.925V47ZM466.925 43.8V47H457.325V43.8H466.925ZM486.125 63V43.8H505.325V47H498.925V63H495.725V47H489.325V63H486.125ZM505.325 63V47H508.525V63H505.325ZM511.719 59.8V53.4H514.919V59.8H511.719ZM511.719 47V43.8H524.519V47H511.719ZM514.919 59.8H524.519V53.4H514.919V50.2H524.519V47H527.719V63H514.919V59.8ZM530.906 47V43.8H534.106V37.4H537.306V43.8H543.706V47H537.306V59.8H534.106V47H530.906ZM537.306 59.8H543.706V63H537.306V59.8ZM543.719 47V43.8H546.919V37.4H550.119V43.8H556.519V47H550.119V59.8H546.919V47H543.719ZM550.119 59.8H556.519V63H550.119V59.8ZM559.719 59.8V47H562.919V50.2H572.519V47H575.719V53.4H562.919V59.8H559.719ZM562.919 59.8H575.719V63H562.919V59.8ZM562.919 47V43.8H572.519V47H562.919ZM578.906 63V43.8H582.106V47H585.306V50.2H582.106V63H578.906ZM591.706 47H585.306V43.8H591.706V47ZM607.719 56.6V43.8H610.919V56.6H607.719ZM610.919 56.6H614.119V63H610.919V56.6ZM614.119 56.6V47H617.319V56.6H614.119ZM617.319 56.6H620.519V63H617.319V56.6ZM620.519 56.6V43.8H623.719V56.6H620.519ZM626.906 63V34.2H630.106V43.8H639.706V47H630.106V63H626.906ZM639.706 63V47H642.906V63H639.706ZM646.094 59.8V53.4H649.294V59.8H646.094ZM646.094 47V43.8H658.894V47H646.094ZM649.294 59.8H658.894V53.4H649.294V50.2H658.894V47H662.094V63H649.294V59.8ZM665.281 47V43.8H668.481V37.4H671.681V43.8H678.081V47H671.681V59.8H668.481V47H665.281ZM671.681 59.8H678.081V63H671.681V59.8ZM694.094 63V34.2H697.294V43.8H706.894V47H697.294V63H694.094ZM706.894 63V47H710.094V63H706.894ZM713.281 59.8V53.4H716.481V59.8H713.281ZM713.281 47V43.8H726.081V47H713.281ZM716.481 59.8H726.081V53.4H716.481V50.2H726.081V47H729.281V63H716.481V59.8ZM732.469 66.2V43.8H745.269V47H735.669V56.6H745.269V59.8H735.669V66.2H732.469ZM745.269 56.6V47H748.469V56.6H745.269ZM751.656 66.2V43.8H764.456V47H754.856V56.6H764.456V59.8H754.856V66.2H751.656ZM764.456 56.6V47H767.656V56.6H764.456ZM770.844 59.8V47H774.044V50.2H783.644V47H786.844V53.4H774.044V59.8H770.844ZM774.044 59.8H786.844V63H774.044V59.8ZM774.044 47V43.8H783.644V47H774.044ZM790.031 63V43.8H802.831V47H793.231V63H790.031ZM802.831 63V47H806.031V63H802.831ZM809.219 63V59.8H818.819V63H809.219ZM809.219 50.2V47H812.419V50.2H809.219ZM812.419 47V43.8H822.019V47H812.419ZM812.419 50.2H818.819V53.4H812.419V50.2ZM818.819 59.8V53.4H822.019V59.8H818.819ZM51 95.4V76.2H54.2V95.4H51ZM54.2 105V95.4H57.4V105H54.2ZM57.4 95.4V82.6H60.6V95.4H57.4ZM60.6 105V95.4H63.8V105H60.6ZM63.8 95.4V76.2H67V95.4H63.8ZM70.1875 101.8V89H73.3875V92.2H82.9875V89H86.1875V95.4H73.3875V101.8H70.1875ZM73.3875 101.8H86.1875V105H73.3875V101.8ZM73.3875 89V85.8H82.9875V89H73.3875ZM102.188 98.6V85.8H105.388V98.6H102.188ZM105.388 98.6H108.588V105H105.388V98.6ZM108.588 98.6V89H111.788V98.6H108.588ZM111.788 98.6H114.988V105H111.788V98.6ZM114.988 98.6V85.8H118.188V98.6H114.988ZM121.375 105V85.8H124.575V105H121.375ZM121.375 82.6V79.4H124.575V82.6H121.375ZM127.781 101.8V76.2H130.981V101.8H127.781ZM130.981 101.8H134.181V105H130.981V101.8ZM137.375 101.8V76.2H140.575V101.8H137.375ZM140.575 101.8H143.775V105H140.575V101.8ZM159.781 101.8V95.4H162.981V101.8H159.781ZM159.781 89V85.8H172.581V89H159.781ZM162.981 101.8H172.581V95.4H162.981V92.2H172.581V89H175.781V105H162.981V101.8ZM178.969 101.8V76.2H182.169V101.8H178.969ZM182.169 101.8H185.369V105H182.169V101.8ZM188.562 98.6V85.8H191.763V98.6H188.562ZM191.763 98.6H194.963V105H191.763V98.6ZM194.963 98.6V89H198.163V98.6H194.963ZM198.163 98.6H201.363V105H198.163V98.6ZM201.363 98.6V85.8H204.562V98.6H201.363ZM207.75 101.8V95.4H210.95V101.8H207.75ZM207.75 89V85.8H220.55V89H207.75ZM210.95 101.8H220.55V95.4H210.95V92.2H220.55V89H223.75V105H210.95V101.8ZM226.938 108.2V105H233.338V108.2H226.938ZM226.938 92.2V85.8H230.138V92.2H226.938ZM230.138 98.6V92.2H233.338V98.6H230.138ZM233.338 98.6H236.538V105H233.338V98.6ZM236.538 98.6V92.2H239.738V98.6H236.538ZM239.738 92.2V85.8H242.938V92.2H239.738ZM246.125 105V101.8H255.725V105H246.125ZM246.125 92.2V89H249.325V92.2H246.125ZM249.325 89V85.8H258.925V89H249.325ZM249.325 92.2H255.725V95.4H249.325V92.2ZM255.725 101.8V95.4H258.925V101.8H255.725ZM274.938 105V76.2H278.138V85.8H287.738V89H278.138V101.8H287.738V105H274.938ZM287.738 101.8V89H290.938V101.8H287.738ZM294.125 101.8V89H297.325V92.2H306.925V89H310.125V95.4H297.325V101.8H294.125ZM297.325 101.8H310.125V105H297.325V101.8ZM297.325 89V85.8H306.925V89H297.325ZM326.125 89V85.8H329.325V79.4H332.525V85.8H338.925V89H332.525V101.8H329.325V89H326.125ZM332.525 101.8H338.925V105H332.525V101.8ZM342.125 105V76.2H345.325V85.8H354.925V89H345.325V105H342.125ZM354.925 105V89H358.125V105H354.925ZM361.312 101.8V89H364.513V92.2H374.113V89H377.312V95.4H364.513V101.8H361.312ZM364.513 101.8H377.312V105H364.513V101.8ZM364.513 89V85.8H374.113V89H364.513ZM380.5 105V85.8H383.7V89H386.9V92.2H383.7V105H380.5ZM393.3 89H386.9V85.8H393.3V89ZM396.5 101.8V89H399.7V92.2H409.3V89H412.5V95.4H399.7V101.8H396.5ZM399.7 101.8H412.5V105H399.7V101.8ZM399.7 89V85.8H409.3V89H399.7ZM428.5 89V85.8H431.7V79.4H434.9V85.8H441.3V89H434.9V101.8H431.7V89H428.5ZM434.9 101.8H441.3V105H434.9V101.8ZM444.5 101.8V89H447.7V101.8H444.5ZM457.3 101.8V105H447.7V101.8H457.3ZM457.3 89H460.5V101.8H457.3V89ZM457.3 85.8V89H447.7V85.8H457.3ZM476.5 108.2V85.8H489.3V89H479.7V98.6H489.3V101.8H479.7V108.2H476.5ZM489.3 98.6V89H492.5V98.6H489.3ZM495.688 105V85.8H498.888V89H502.088V92.2H498.888V105H495.688ZM508.488 89H502.088V85.8H508.488V89ZM511.688 101.8V89H514.888V101.8H511.688ZM524.488 101.8V105H514.888V101.8H524.488ZM524.488 89H527.688V101.8H524.488V89ZM524.488 85.8V89H514.888V85.8H524.488ZM530.875 89V85.8H534.075V79.4H537.275V85.8H543.675V89H537.275V101.8H534.075V89H530.875ZM537.275 101.8H543.675V105H537.275V101.8ZM546.875 101.8V89H550.075V92.2H559.675V89H562.875V95.4H550.075V101.8H546.875ZM550.075 101.8H562.875V105H550.075V101.8ZM550.075 89V85.8H559.675V89H550.075ZM566.062 101.8V89H569.263V101.8H566.062ZM569.263 101.8H582.062V105H569.263V101.8ZM569.263 89V85.8H582.062V89H569.263ZM585.25 89V85.8H588.45V79.4H591.65V85.8H598.05V89H591.65V101.8H588.45V89H585.25ZM591.65 101.8H598.05V105H591.65V101.8ZM614.062 108.2V105H620.463V108.2H614.062ZM614.062 92.2V85.8H617.263V92.2H614.062ZM617.263 98.6V92.2H620.463V98.6H617.263ZM620.463 98.6H623.663V105H620.463V98.6ZM623.663 98.6V92.2H626.863V98.6H623.663ZM626.863 92.2V85.8H630.062V92.2H626.863ZM633.25 101.8V89H636.45V101.8H633.25ZM646.05 101.8V105H636.45V101.8H646.05ZM646.05 89H649.25V101.8H646.05V89ZM646.05 85.8V89H636.45V85.8H646.05ZM652.438 101.8V85.8H655.638V101.8H652.438ZM665.238 101.8V85.8H668.438V105H655.638V101.8H665.238ZM674.825 98.6H678.025V105H674.825V98.6ZM674.825 95.4V76.2H678.025V95.4H674.825ZM51 166.6V160.2H54.2V166.6H51ZM54.2 173V166.6H57.4V173H54.2ZM57.4 189V173H60.6V189H57.4ZM60.6 173V166.6H63.8V173H60.6ZM63.8 166.6V160.2H67V166.6H63.8ZM67 185.8V173H70.2V185.8H67ZM79.8 185.8V189H70.2V185.8H79.8ZM79.8 173H83V185.8H79.8V173ZM79.8 169.8V173H70.2V169.8H79.8ZM86.1875 185.8V169.8H89.3875V185.8H86.1875ZM98.9875 185.8V169.8H102.188V189H89.3875V185.8H98.9875ZM105.375 189V169.8H108.575V173H111.775V176.2H108.575V189H105.375ZM118.175 173H111.775V169.8H118.175V173ZM134.188 173V169.8H137.388V163.4H140.588V169.8H146.988V173H140.588V189H137.388V173H134.188ZM140.588 163.4V160.2H146.988V163.4H140.588ZM150.188 185.8V179.4H153.388V185.8H150.188ZM150.188 173V169.8H162.988V173H150.188ZM153.388 185.8H162.988V179.4H153.388V176.2H162.988V173H166.188V189H153.388V185.8ZM169.375 173V169.8H172.575V163.4H175.775V169.8H182.175V173H175.775V185.8H172.575V173H169.375ZM175.775 185.8H182.175V189H175.775V185.8ZM185.375 185.8V173H188.575V176.2H198.175V173H201.375V179.4H188.575V185.8H185.375ZM188.575 185.8H201.375V189H188.575V185.8ZM188.575 173V169.8H198.175V173H188.575ZM217.375 189V169.8H220.575V189H217.375ZM217.375 166.6V163.4H220.575V166.6H217.375ZM223.781 189V185.8H233.381V189H223.781ZM223.781 176.2V173H226.981V176.2H223.781ZM226.981 173V169.8H236.581V173H226.981ZM226.981 176.2H233.381V179.4H226.981V176.2ZM233.381 185.8V179.4H236.581V185.8H233.381ZM252.594 185.8V169.8H255.794V185.8H252.594ZM265.394 185.8V169.8H268.594V189H255.794V185.8H265.394ZM271.781 192.2V169.8H284.581V173H274.981V182.6H284.581V185.8H274.981V192.2H271.781ZM284.581 182.6V173H287.781V182.6H284.581ZM303.781 173V169.8H306.981V163.4H310.181V169.8H316.581V173H310.181V185.8H306.981V173H303.781ZM310.181 185.8H316.581V189H310.181V185.8ZM319.781 185.8V173H322.981V185.8H319.781ZM332.581 185.8V189H322.981V185.8H332.581ZM332.581 173H335.781V185.8H332.581V173ZM332.581 169.8V173H322.981V169.8H332.581ZM351.781 192.2V189H358.181V192.2H351.781ZM351.781 176.2V169.8H354.981V176.2H351.781ZM354.981 182.6V176.2H358.181V182.6H354.981ZM358.181 182.6H361.381V189H358.181V182.6ZM361.381 182.6V176.2H364.581V182.6H361.381ZM364.581 176.2V169.8H367.781V176.2H364.581ZM370.969 185.8V173H374.169V185.8H370.969ZM383.769 185.8V189H374.169V185.8H383.769ZM383.769 173H386.969V185.8H383.769V173ZM383.769 169.8V173H374.169V169.8H383.769ZM390.156 185.8V169.8H393.356V185.8H390.156ZM402.956 185.8V169.8H406.156V189H393.356V185.8H402.956ZM409.344 192.2V189H412.544V192.2H409.344ZM412.544 189V185.8H415.744V189H412.544ZM434.969 189V169.8H447.769V173H438.169V189H434.969ZM447.769 189V173H450.969V189H447.769ZM454.156 185.8V173H457.356V185.8H454.156ZM466.956 185.8V189H457.356V185.8H466.956ZM466.956 173H470.156V185.8H466.956V173ZM466.956 169.8V173H457.356V169.8H466.956ZM473.344 182.6V169.8H476.544V182.6H473.344ZM476.544 182.6H479.744V189H476.544V182.6ZM479.744 182.6V173H482.944V182.6H479.744ZM482.944 182.6H486.144V189H482.944V182.6ZM486.144 182.6V169.8H489.344V182.6H486.144ZM495.731 182.6H498.931V189H495.731V182.6ZM495.731 179.4V160.2H498.931V179.4H495.731Z" fill="white"/>
<defs>
<filter id="filter0_d_73_228" x="0" y="0" width="915" height="246" filterUnits="userSpaceOnUse" color-interpolation-filters="sRGB">
<feFlood flood-opacity="0" result="BackgroundImageFix"/>
<feColorMatrix in="SourceAlpha" type="matrix" values="0 0 0 0 0 0 0 0 0 0 0 0 0 0 0 0 0 0 127 0" result="hardAlpha"/>
<feOffset dy="4"/>
<feGaussianBlur stdDeviation="2"/>
<feComposite in2="hardAlpha" operator="out"/>
<feColorMatrix type="matrix" values="0 0 0 0 0 0 0 0 0 0 0 0 0 0 0 0 0 0 0.25 0"/>
<feBlend mode="normal" in2="BackgroundImageFix" result="effect1_dropShadow_73_228"/>
<feBlend mode="normal" in="SourceGraphic" in2="effect1_dropShadow_73_228" result="shape"/>
</filter>
</defs>
</svg>
