<svg width="915" height="246" viewBox="0 0 915 246" fill="none" xmlns="http://www.w3.org/2000/svg">
<g filter="url(#filter0_d_73_227)">
<rect x="4" width="907" height="238" fill="black"/>
<rect x="7" y="3" width="901" height="232" stroke="white" stroke-width="6"/>
</g>
<path d="M51 40.6V34.2H54.2V40.6H51ZM54.2 47V40.6H57.4V47H54.2ZM57.4 63V47H60.6V63H57.4ZM60.6 47V40.6H63.8V47H60.6ZM63.8 40.6V34.2H67V40.6H63.8ZM67 59.8V47H70.2V59.8H67ZM79.8 59.8V63H70.2V59.8H79.8ZM79.8 47H83V59.8H79.8V47ZM79.8 43.8V47H70.2V43.8H79.8ZM86.1875 59.8V43.8H89.3875V59.8H86.1875ZM98.9875 59.8V43.8H102.188V63H89.3875V59.8H98.9875ZM118.175 50.2V47H121.375V50.2H118.175ZM130.975 47V50.2H127.775V47H130.975ZM108.575 50.2V47H111.775V50.2H108.575ZM150.188 59.8V53.4H153.388V59.8H150.188ZM150.188 47V43.8H162.988V47H150.188ZM153.388 59.8H162.988V53.4H153.388V50.2H162.988V47H166.188V63H153.388V59.8ZM169.375 47V43.8H172.575V37.4H175.775V43.8H182.175V47H175.775V59.8H172.575V47H169.375ZM175.775 59.8H182.175V63H175.775V59.8ZM198.188 63V43.8H217.388V47H210.988V63H207.788V47H201.388V63H198.188ZM217.388 63V47H220.588V63H217.388ZM223.781 66.2V63H230.181V66.2H223.781ZM223.781 50.2V43.8H226.981V50.2H223.781ZM226.981 56.6V50.2H230.181V56.6H226.981ZM230.181 56.6H233.381V63H230.181V56.6ZM233.381 56.6V50.2H236.581V56.6H233.381ZM236.581 50.2V43.8H239.781V50.2H236.581ZM255.781 63V43.8H274.981V47H268.581V63H265.381V47H258.981V63H255.781ZM274.981 63V47H278.181V63H274.981ZM281.375 59.8V47H284.575V59.8H281.375ZM294.175 59.8V63H284.575V59.8H294.175ZM294.175 47H297.375V59.8H294.175V47ZM294.175 43.8V47H284.575V43.8H294.175ZM300.562 63V59.8H310.163V63H300.562ZM300.562 50.2V47H303.763V50.2H300.562ZM303.763 47V43.8H313.363V47H303.763ZM303.763 50.2H310.163V53.4H303.763V50.2ZM310.163 59.8V53.4H313.363V59.8H310.163ZM316.562 47V43.8H319.763V37.4H322.963V43.8H329.363V47H322.963V59.8H319.763V47H316.562ZM322.963 59.8H329.363V63H322.963V59.8ZM345.375 50.2V43.8H348.575V50.2H345.375ZM348.575 56.6V50.2H351.775V56.6H348.575ZM351.775 56.6H354.975V63H351.775V56.6ZM354.975 56.6V50.2H358.175V56.6H354.975ZM358.175 50.2V43.8H361.375V50.2H358.175ZM364.562 59.8V43.8H367.763V59.8H364.562ZM377.363 59.8V43.8H380.562V63H367.763V59.8H377.363ZM383.75 59.8V34.2H386.95V59.8H383.75ZM386.95 59.8H390.15V63H386.95V59.8ZM393.344 63V43.8H406.144V47H396.544V63H393.344ZM406.144 63V47H409.344V63H406.144ZM412.531 59.8V47H415.731V50.2H425.331V47H428.531V53.4H415.731V59.8H412.531ZM415.731 59.8H428.531V63H415.731V59.8ZM415.731 47V43.8H425.331V47H415.731ZM431.719 63V43.8H434.919V47H438.119V50.2H434.919V63H431.719ZM444.519 47H438.119V43.8H444.519V47ZM447.719 59.8V53.4H450.919V59.8H447.719ZM447.719 47V43.8H460.519V47H447.719ZM450.919 59.8H460.519V53.4H450.919V50.2H460.519V47H463.719V63H450.919V59.8ZM466.906 63V34.2H470.106V43.8H479.706V47H470.106V59.8H479.706V63H466.906ZM479.706 59.8V47H482.906V59.8H479.706ZM486.094 59.8V34.2H489.294V59.8H486.094ZM489.294 59.8H492.494V63H489.294V59.8ZM495.688 59.8V47H498.888V50.2H508.488V47H511.688V53.4H498.888V59.8H495.688ZM498.888 59.8H511.688V63H498.888V59.8ZM498.888 47V43.8H508.488V47H498.888ZM527.688 63V43.8H546.888V47H540.488V63H537.288V47H530.888V63H527.688ZM546.888 63V47H550.088V63H546.888ZM553.281 59.8V47H556.481V59.8H553.281ZM566.081 59.8V63H556.481V59.8H566.081ZM566.081 47H569.281V59.8H566.081V47ZM566.081 43.8V47H556.481V43.8H566.081ZM572.469 63V43.8H591.669V47H585.269V63H582.069V47H575.669V63H572.469ZM591.669 63V47H594.869V63H591.669ZM598.062 59.8V47H601.263V50.2H610.863V47H614.062V53.4H601.263V59.8H598.062ZM601.263 59.8H614.062V63H601.263V59.8ZM601.263 47V43.8H610.863V47H601.263ZM617.25 63V43.8H630.05V47H620.45V63H617.25ZM630.05 63V47H633.25V63H630.05ZM636.438 47V43.8H639.638V37.4H642.838V43.8H649.238V47H642.838V59.8H639.638V47H636.438ZM642.838 59.8H649.238V63H642.838V59.8ZM665.238 50.2V47H668.438V50.2H665.238ZM678.038 47V50.2H674.838V47H678.038ZM655.638 50.2V47H658.838V50.2H655.638ZM51 79.4V76.2H67V79.4H60.6V105H57.4V79.4H51ZM67 101.8V89H70.2V101.8H67ZM79.8 101.8V105H70.2V101.8H79.8ZM79.8 89H83V101.8H79.8V89ZM79.8 85.8V89H70.2V85.8H79.8ZM99 89V85.8H102.2V79.4H105.4V85.8H111.8V89H105.4V101.8H102.2V89H99ZM105.4 101.8H111.8V105H105.4V101.8ZM115 105V76.2H118.2V85.8H127.8V89H118.2V105H115ZM127.8 105V89H131V105H127.8ZM134.188 105V85.8H137.388V105H134.188ZM134.188 82.6V79.4H137.388V82.6H134.188ZM140.594 105V85.8H153.394V89H143.794V105H140.594ZM153.394 105V89H156.594V105H153.394ZM159.781 105V76.2H162.981V92.2H166.181V95.4H162.981V105H159.781ZM166.181 98.6V95.4H169.381V98.6H166.181ZM166.181 92.2V89H169.381V92.2H166.181ZM169.381 98.6H172.581V105H169.381V98.6ZM169.381 89V85.8H172.581V89H169.381ZM188.594 105V76.2H191.794V105H188.594ZM207.812 98.6V85.8H211.013V98.6H207.812ZM211.013 98.6H214.213V105H211.013V98.6ZM214.213 98.6V89H217.413V98.6H214.213ZM217.413 98.6H220.613V105H217.413V98.6ZM220.613 98.6V85.8H223.812V98.6H220.613ZM227 101.8V95.4H230.2V101.8H227ZM227 89V85.8H239.8V89H227ZM230.2 101.8H239.8V95.4H230.2V92.2H239.8V89H243V105H230.2V101.8ZM246.188 105V101.8H255.788V105H246.188ZM246.188 92.2V89H249.388V92.2H246.188ZM249.388 89V85.8H258.988V89H249.388ZM249.388 92.2H255.788V95.4H249.388V92.2ZM255.788 101.8V95.4H258.988V101.8H255.788ZM275 98.6V85.8H278.2V98.6H275ZM278.2 98.6H281.4V105H278.2V98.6ZM281.4 98.6V89H284.6V98.6H281.4ZM284.6 98.6H287.8V105H284.6V98.6ZM287.8 98.6V85.8H291V98.6H287.8ZM294.188 101.8V89H297.388V101.8H294.188ZM306.988 101.8V105H297.388V101.8H306.988ZM306.988 89H310.188V101.8H306.988V89ZM306.988 85.8V89H297.388V85.8H306.988ZM313.375 105V85.8H316.575V89H319.775V92.2H316.575V105H313.375ZM326.175 89H319.775V85.8H326.175V89ZM329.375 105V85.8H332.575V89H335.775V92.2H332.575V105H329.375ZM342.175 89H335.775V85.8H342.175V89ZM345.375 105V85.8H348.575V105H345.375ZM345.375 82.6V79.4H348.575V82.6H345.375ZM351.781 101.8V89H354.981V92.2H364.581V89H367.781V95.4H354.981V101.8H351.781ZM354.981 101.8H367.781V105H354.981V101.8ZM354.981 89V85.8H364.581V89H354.981ZM370.969 101.8V89H374.169V101.8H370.969ZM383.769 101.8V89H374.169V85.8H383.769V76.2H386.969V105H374.169V101.8H383.769ZM402.969 108.2V105H409.369V108.2H402.969ZM402.969 92.2V85.8H406.169V92.2H402.969ZM406.169 98.6V92.2H409.369V98.6H406.169ZM409.369 98.6H412.569V105H409.369V98.6ZM412.569 98.6V92.2H415.769V98.6H412.569ZM415.769 92.2V85.8H418.969V92.2H415.769ZM422.156 101.8V89H425.356V101.8H422.156ZM434.956 101.8V105H425.356V101.8H434.956ZM434.956 89H438.156V101.8H434.956V89ZM434.956 85.8V89H425.356V85.8H434.956ZM441.344 101.8V85.8H444.544V101.8H441.344ZM454.144 101.8V85.8H457.344V105H444.544V101.8H454.144ZM473.344 98.6V85.8H476.544V98.6H473.344ZM476.544 98.6H479.744V105H476.544V98.6ZM479.744 98.6V89H482.944V98.6H479.744ZM482.944 98.6H486.144V105H482.944V98.6ZM486.144 98.6V85.8H489.344V98.6H486.144ZM492.531 101.8V89H495.731V101.8H492.531ZM505.331 101.8V105H495.731V101.8H505.331ZM505.331 89H508.531V101.8H505.331V89ZM505.331 85.8V89H495.731V85.8H505.331ZM511.719 101.8V85.8H514.919V101.8H511.719ZM524.519 101.8V85.8H527.719V105H514.919V101.8H524.519ZM530.906 101.8V76.2H534.106V101.8H530.906ZM534.106 101.8H537.306V105H534.106V101.8ZM540.5 101.8V89H543.7V101.8H540.5ZM553.3 101.8V89H543.7V85.8H553.3V76.2H556.5V105H543.7V101.8H553.3ZM559.688 105V85.8H572.488V89H562.888V105H559.688ZM572.488 105V89H575.688V105H572.488ZM578.875 82.6V76.2H582.075V82.6H578.875ZM585.281 89V85.8H588.481V79.4H591.681V85.8H598.081V89H591.681V101.8H588.481V89H585.281ZM591.681 101.8H598.081V105H591.681V101.8ZM614.094 89V85.8H617.294V79.4H620.494V85.8H626.894V89H620.494V105H617.294V89H614.094ZM620.494 79.4V76.2H626.894V79.4H620.494ZM630.094 105V85.8H633.294V105H630.094ZM630.094 82.6V79.4H633.294V82.6H630.094ZM636.5 89V85.8H639.7V79.4H642.9V85.8H649.3V89H642.9V101.8H639.7V89H636.5ZM642.9 101.8H649.3V105H642.9V101.8ZM665.312 105V85.8H668.513V105H665.312ZM665.312 82.6V79.4H668.513V82.6H665.312ZM671.719 105V85.8H684.519V89H674.919V105H671.719ZM684.519 105V89H687.719V105H684.519ZM703.719 101.8V89H706.919V101.8H703.719ZM716.519 101.8V105H706.919V101.8H716.519ZM716.519 89H719.719V101.8H716.519V89ZM716.519 85.8V89H706.919V85.8H716.519ZM722.906 101.8V85.8H726.106V101.8H722.906ZM735.706 101.8V85.8H738.906V105H726.106V101.8H735.706ZM742.094 89V85.8H745.294V79.4H748.494V85.8H754.894V89H748.494V101.8H745.294V89H742.094ZM748.494 101.8H754.894V105H748.494V101.8ZM51 131V127.8H54.2V121.4H57.4V127.8H63.8V131H57.4V143.8H54.2V131H51ZM57.4 143.8H63.8V147H57.4V143.8ZM67 147V118.2H70.2V127.8H79.8V131H70.2V147H67ZM79.8 147V131H83V147H79.8ZM86.1875 143.8V131H89.3875V134.2H98.9875V131H102.188V137.4H89.3875V143.8H86.1875ZM89.3875 143.8H102.188V147H89.3875V143.8ZM89.3875 131V127.8H98.9875V131H89.3875ZM105.375 147V127.8H108.575V131H111.775V134.2H108.575V147H105.375ZM118.175 131H111.775V127.8H118.175V131ZM121.375 143.8V131H124.575V134.2H134.175V131H137.375V137.4H124.575V143.8H121.375ZM124.575 143.8H137.375V147H124.575V143.8ZM124.575 131V127.8H134.175V131H124.575ZM153.363 134.2V131H156.562V134.2H153.363ZM166.163 131V134.2H162.963V131H166.163ZM143.763 134.2V131H146.963V134.2H143.763ZM51 189V160.2H63.8V163.4H54.2V173H63.8V176.2H54.2V185.8H63.8V189H51ZM67 189V160.2H70.2V169.8H79.8V173H70.2V189H67ZM79.8 189V173H83V189H79.8ZM86.1875 185.8V173H89.3875V176.2H98.9875V173H102.188V179.4H89.3875V185.8H86.1875ZM89.3875 185.8H102.188V189H89.3875V185.8ZM89.3875 173V169.8H98.9875V173H89.3875ZM105.375 189V160.2H108.575V169.8H118.175V173H108.575V189H105.375ZM118.175 189V173H121.375V189H118.175ZM124.562 185.8V173H127.763V176.2H137.363V173H140.562V179.4H127.763V185.8H124.562ZM127.763 185.8H140.562V189H127.763V185.8ZM127.763 173V169.8H137.363V173H127.763ZM143.75 189V160.2H146.95V169.8H156.55V173H146.95V189H143.75ZM156.55 189V173H159.75V189H156.55ZM162.938 185.8V173H166.138V176.2H175.738V173H178.938V179.4H166.138V185.8H162.938ZM166.138 185.8H178.938V189H166.138V185.8ZM166.138 173V169.8H175.738V173H166.138ZM182.125 189V160.2H185.325V169.8H194.925V173H185.325V189H182.125ZM194.925 189V173H198.125V189H194.925ZM204.513 182.6H207.713V189H204.513V182.6ZM204.513 179.4V160.2H207.713V179.4H204.513ZM217.325 182.6H220.525V189H217.325V182.6ZM217.325 179.4V160.2H220.525V179.4H217.325ZM230.138 182.6H233.338V189H230.138V182.6ZM230.138 179.4V160.2H233.338V179.4H230.138ZM252.562 166.6V160.2H255.763V166.6H252.562ZM255.763 173V166.6H258.963V173H255.763ZM258.963 189V173H262.163V189H258.963ZM262.163 173V166.6H265.363V173H262.163ZM265.363 166.6V160.2H268.562V166.6H265.363ZM268.562 185.8V173H271.763V185.8H268.562ZM281.363 185.8V189H271.763V185.8H281.363ZM281.363 173H284.562V185.8H281.363V173ZM281.363 169.8V173H271.763V169.8H281.363ZM287.75 185.8V169.8H290.95V185.8H287.75ZM300.55 185.8V169.8H303.75V189H290.95V185.8H300.55ZM319.75 189V169.8H322.95V173H326.15V176.2H322.95V189H319.75ZM332.55 173H326.15V169.8H332.55V173ZM335.75 185.8V173H338.95V176.2H348.55V173H351.75V179.4H338.95V185.8H335.75ZM338.95 185.8H351.75V189H338.95V185.8ZM338.95 173V169.8H348.55V173H338.95ZM354.938 185.8V179.4H358.138V185.8H354.938ZM354.938 173V169.8H367.738V173H354.938ZM358.138 185.8H367.738V179.4H358.138V176.2H367.738V173H370.938V189H358.138V185.8ZM374.125 185.8V160.2H377.325V185.8H374.125ZM377.325 185.8H380.525V189H377.325V185.8ZM383.719 185.8V160.2H386.919V185.8H383.719ZM386.919 185.8H390.119V189H386.919V185.8ZM393.312 192.2V189H399.713V192.2H393.312ZM393.312 176.2V169.8H396.513V176.2H393.312ZM396.513 182.6V176.2H399.713V182.6H396.513ZM399.713 182.6H402.913V189H399.713V182.6ZM402.913 182.6V176.2H406.113V182.6H402.913ZM406.113 176.2V169.8H409.312V176.2H406.113ZM425.312 185.8V179.4H428.513V185.8H425.312ZM425.312 173V169.8H438.113V173H425.312ZM428.513 185.8H438.113V179.4H428.513V176.2H438.113V173H441.312V189H428.513V185.8ZM444.5 189V169.8H447.7V173H450.9V176.2H447.7V189H444.5ZM457.3 173H450.9V169.8H457.3V173ZM460.5 185.8V173H463.7V176.2H473.3V173H476.5V179.4H463.7V185.8H460.5ZM463.7 185.8H476.5V189H463.7V185.8ZM463.7 173V169.8H473.3V173H463.7ZM492.5 189V169.8H505.3V173H495.7V189H492.5ZM505.3 189V173H508.5V189H505.3ZM511.688 185.8V173H514.888V185.8H511.688ZM524.488 185.8V189H514.888V185.8H524.488ZM524.488 173H527.688V185.8H524.488V173ZM524.488 169.8V173H514.888V169.8H524.488ZM543.688 185.8V173H546.888V185.8H543.688ZM556.488 185.8V173H546.888V169.8H556.488V160.2H559.688V189H546.888V185.8H556.488ZM562.875 189V169.8H566.075V189H562.875ZM562.875 166.6V163.4H566.075V166.6H562.875ZM569.281 173V169.8H572.481V163.4H575.681V169.8H582.081V173H575.681V189H572.481V173H569.281ZM575.681 163.4V160.2H582.081V163.4H575.681ZM582.094 173V169.8H585.294V163.4H588.494V169.8H594.894V173H588.494V189H585.294V173H582.094ZM588.494 163.4V160.2H594.894V163.4H588.494ZM598.094 185.8V173H601.294V176.2H610.894V173H614.094V179.4H601.294V185.8H598.094ZM601.294 185.8H614.094V189H601.294V185.8ZM601.294 173V169.8H610.894V173H601.294ZM617.281 189V169.8H620.481V173H623.681V176.2H620.481V189H617.281ZM630.081 173H623.681V169.8H630.081V173ZM633.281 185.8V173H636.481V176.2H646.081V173H649.281V179.4H636.481V185.8H633.281ZM636.481 185.8H649.281V189H636.481V185.8ZM636.481 173V169.8H646.081V173H636.481ZM652.469 189V169.8H665.269V173H655.669V189H652.469ZM665.269 189V173H668.469V189H665.269ZM671.656 173V169.8H674.856V163.4H678.056V169.8H684.456V173H678.056V185.8H674.856V173H671.656ZM678.056 185.8H684.456V189H678.056V185.8ZM700.469 173V169.8H703.669V163.4H706.869V169.8H713.269V173H706.869V185.8H703.669V173H700.469ZM706.869 185.8H713.269V189H706.869V185.8ZM716.469 189V160.2H719.669V169.8H729.269V173H719.669V189H716.469ZM729.269 189V173H732.469V189H729.269ZM735.656 185.8V179.4H738.856V185.8H735.656ZM735.656 173V169.8H748.456V173H735.656ZM738.856 185.8H748.456V179.4H738.856V176.2H748.456V173H751.656V189H738.856V185.8ZM754.844 189V169.8H767.644V173H758.044V189H754.844ZM767.644 189V173H770.844V189H767.644ZM786.844 173V169.8H790.044V163.4H793.244V169.8H799.644V173H793.244V185.8H790.044V173H786.844ZM793.244 185.8H799.644V189H793.244V185.8ZM802.844 189V160.2H806.044V169.8H815.644V173H806.044V189H802.844ZM815.644 189V173H818.844V189H815.644ZM822.031 185.8V173H825.231V176.2H834.831V173H838.031V179.4H825.231V185.8H822.031ZM825.231 185.8H838.031V189H825.231V185.8ZM825.231 173V169.8H834.831V173H825.231ZM841.219 189V169.8H860.419V173H854.019V189H850.819V173H844.419V189H841.219ZM860.419 189V173H863.619V189H860.419ZM870.013 182.6H873.213V189H870.013V182.6ZM870.013 179.4V160.2H873.213V179.4H870.013Z" fill="white"/>
<defs>
<filter id="filter0_d_73_227" x="0" y="0" width="915" height="246" filterUnits="userSpaceOnUse" color-interpolation-filters="sRGB">
<feFlood flood-opacity="0" result="BackgroundImageFix"/>
<feColorMatrix in="SourceAlpha" type="matrix" values="0 0 0 0 0 0 0 0 0 0 0 0 0 0 0 0 0 0 127 0" result="hardAlpha"/>
<feOffset dy="4"/>
<feGaussianBlur stdDeviation="2"/>
<feComposite in2="hardAlpha" operator="out"/>
<feColorMatrix type="matrix" values="0 0 0 0 0 0 0 0 0 0 0 0 0 0 0 0 0 0 0.25 0"/>
<feBlend mode="normal" in2="BackgroundImageFix" result="effect1_dropShadow_73_227"/>
<feBlend mode="normal" in="SourceGraphic" in2="effect1_dropShadow_73_227" result="shape"/>
</filter>
</defs>
</svg>
