<svg width="3157" height="188" viewBox="0 0 3157 188" fill="none" xmlns="http://www.w3.org/2000/svg">
<path d="M125 188H93.75V156.75V125.5V94.25H62.5V125.5V156.75V188H31.25H0V156.75V125.5V94.25V63V31.75V0.5H31.25H62.5V31.75V63H93.75H125H156.25V94.25V125.5V156.75V188H125ZM312.5 188H281.25H250H218.75H187.5V156.75V125.5V94.25V63H218.75H250H281.25V31.75H250H218.75V0.5H250H281.25H312.5H343.75V31.75V63V94.25V125.5V156.75V188H312.5ZM281.25 156.75V125.5V94.25H250V125.5V156.75H281.25ZM468.75 188H437.5H406.25V156.75V125.5V94.25H375V63H406.25V31.75V0.5H437.5H468.75V31.75V63H500V94.25H468.75V125.5V156.75H500V188H468.75ZM656.25 156.75H687.5V188H656.25H625H593.75H562.5H531.25V156.75V125.5V94.25V63V31.75V0.5H562.5H593.75H625H656.25H687.5V31.75V63V94.25V125.5H656.25H625H593.75V156.75H625H656.25ZM625 94.25V63V31.75H593.75V63V94.25H625ZM1093.75 188H1062.5V156.75V125.5V94.25V63V31.75H1031.25V63V94.25V125.5V156.75V188H1000H968.75V156.75V125.5V94.25V63V31.75H937.5V63V94.25V125.5V156.75V188H906.25H875V156.75V125.5V94.25V63V31.75V0.5H906.25H937.5H968.75H1000H1031.25H1062.5H1093.75H1125V31.75V63V94.25V125.5V156.75V188H1093.75ZM1281.25 156.75H1312.5V188H1281.25H1250H1218.75H1187.5H1156.25V156.75V125.5V94.25V63V31.75V0.5H1187.5H1218.75H1250H1281.25H1312.5V31.75V63V94.25V125.5H1281.25H1250H1218.75V156.75H1250H1281.25ZM1250 94.25V63V31.75H1218.75V63V94.25H1250ZM1593.75 188H1562.5H1531.25V156.75V125.5V94.25H1500V63H1531.25V31.75V0.5H1562.5H1593.75V31.75V63H1625V94.25H1593.75V125.5V156.75H1625V188H1593.75ZM1781.25 188H1750V156.75V125.5V94.25H1718.75V125.5V156.75V188H1687.5H1656.25V156.75V125.5V94.25V63V31.75V0.5H1687.5H1718.75V31.75V63H1750H1781.25H1812.5V94.25V125.5V156.75V188H1781.25ZM1968.75 188H1937.5H1906.25H1875H1843.75V156.75V125.5V94.25V63H1875H1906.25H1937.5V31.75H1906.25H1875V0.5H1906.25H1937.5H1968.75H2000V31.75V63V94.25V125.5V156.75V188H1968.75ZM1937.5 156.75V125.5V94.25H1906.25V125.5V156.75H1937.5ZM2125 188H2093.75H2062.5V156.75V125.5V94.25H2031.25V63H2062.5V31.75V0.5H2093.75H2125V31.75V63H2156.25V94.25H2125V125.5V156.75H2156.25V188H2125ZM2562.5 188H2531.25V156.75V125.5V94.25V63V31.75H2500V63V94.25V125.5V156.75V188H2468.75H2437.5V156.75V125.5V94.25V63V31.75H2406.25V63V94.25V125.5V156.75V188H2375H2343.75V156.75V125.5V94.25V63V31.75V0.5H2375H2406.25H2437.5H2468.75H2500H2531.25H2562.5H2593.75V31.75V63V94.25V125.5V156.75V188H2562.5ZM2750 188H2718.75H2687.5H2656.25H2625V156.75V125.5V94.25V63H2656.25H2687.5H2718.75V31.75H2687.5H2656.25V0.5H2687.5H2718.75H2750H2781.25V31.75V63V94.25V125.5V156.75V188H2750ZM2718.75 156.75V125.5V94.25H2687.5V125.5V156.75H2718.75ZM2937.5 188H2906.25H2875H2843.75H2812.5V156.75V125.5V94.25V63V31.75V0.5H2843.75H2875H2906.25H2937.5H2968.75V31.75V63H2937.5H2906.25V31.75H2875V63V94.25V125.5V156.75H2906.25V125.5H2937.5H2968.75V156.75V188H2937.5ZM3125 188H3093.75V156.75V125.5V94.25H3062.5V125.5V156.75V188H3031.25H3000V156.75V125.5V94.25V63V31.75V0.5H3031.25H3062.5V31.75V63H3093.75H3125H3156.25V94.25V125.5V156.75V188H3125Z" fill="white"/>
</svg>
