<svg width="2438" height="251" viewBox="0 0 2438 251" fill="none" xmlns="http://www.w3.org/2000/svg">
<path d="M93.75 188H62.5V156.75V125.5V94.25H31.25H0V63V31.75V0.5H31.25H62.5V31.75V63H93.75H125V31.75V0.5H156.25H187.5V31.75V63V94.25H156.25H125V125.5V156.75V188H93.75ZM343.75 188H312.5H281.25H250H218.75V156.75V125.5V94.25V63V31.75V0.5H250H281.25H312.5H343.75H375V31.75V63V94.25V125.5V156.75V188H343.75ZM312.5 156.75V125.5V94.25V63V31.75H281.25V63V94.25V125.5V156.75H312.5ZM531.25 188H500H468.75H437.5H406.25V156.75V125.5V94.25V63V31.75V0.5H437.5H468.75V31.75V63V94.25V125.5V156.75H500V125.5V94.25V63V31.75V0.5H531.25H562.5V31.75V63V94.25V125.5V156.75V188H531.25ZM781.25 188H750V156.75V125.5V94.25V63V31.75V0.5H781.25H812.5H843.75H875H906.25V31.75V63H875H843.75V31.75H812.5V63V94.25V125.5V156.75V188H781.25ZM1062.5 156.75H1093.75V188H1062.5H1031.25H1000H968.75H937.5V156.75V125.5V94.25V63V31.75V0.5H968.75H1000H1031.25H1062.5H1093.75V31.75V63V94.25V125.5H1062.5H1031.25H1000V156.75H1031.25H1062.5ZM1031.25 94.25V63V31.75H1000V63V94.25H1031.25ZM1250 188H1218.75H1187.5H1156.25H1125V156.75V125.5V94.25V63H1156.25H1187.5H1218.75V31.75H1187.5H1156.25V0.5H1187.5H1218.75H1250H1281.25V31.75V63V94.25V125.5V156.75V188H1250ZM1218.75 156.75V125.5V94.25H1187.5V125.5V156.75H1218.75ZM1375 188H1343.75H1312.5V156.75V125.5V94.25V63V31.75V0.5H1343.75H1375V31.75V63V94.25V125.5V156.75H1406.25V188H1375ZM1500 188H1468.75H1437.5V156.75V125.5V94.25V63V31.75V0.5H1468.75H1500V31.75V63V94.25V125.5V156.75H1531.25V188H1500ZM1687.5 250.5H1656.25H1625H1593.75H1562.5V219.25H1593.75H1625H1656.25V188H1625H1593.75H1562.5V156.75V125.5V94.25V63V31.75V0.5H1593.75H1625V31.75V63V94.25V125.5V156.75H1656.25V125.5V94.25V63V31.75V0.5H1687.5H1718.75V31.75V63V94.25V125.5V156.75V188V219.25V250.5H1687.5ZM2031.25 188H2000H1968.75H1937.5H1906.25V156.75V125.5V94.25V63H1937.5H1968.75H2000V31.75H1968.75H1937.5V0.5H1968.75H2000H2031.25H2062.5V31.75V63V94.25V125.5V156.75V188H2031.25ZM2000 156.75V125.5V94.25H1968.75V125.5V156.75H2000ZM2125 188H2093.75V156.75V125.5V94.25V63V31.75V0.5H2125H2156.25H2187.5H2218.75H2250V31.75V63H2218.75H2187.5V31.75H2156.25V63V94.25V125.5V156.75V188H2125ZM2406.25 156.75H2437.5V188H2406.25H2375H2343.75H2312.5H2281.25V156.75V125.5V94.25V63V31.75V0.5H2312.5H2343.75H2375H2406.25H2437.5V31.75V63V94.25V125.5H2406.25H2375H2343.75V156.75H2375H2406.25ZM2375 94.25V63V31.75H2343.75V63V94.25H2375Z" fill="white"/>
</svg>
