<svg width="3750" height="188" viewBox="0 0 3750 188" fill="none" xmlns="http://www.w3.org/2000/svg">
<path d="M125 188H93.75V156.75V125.5V94.25V63V31.75H62.5V63V94.25V125.5V156.75V188H31.25H0V156.75V125.5V94.25V63V31.75V0.5H31.25H62.5H93.75H125H156.25V31.75V63V94.25V125.5V156.75V188H125ZM312.5 188H281.25H250H218.75H187.5V156.75V125.5V94.25V63V31.75V0.5H218.75H250H281.25H312.5H343.75V31.75V63V94.25V125.5V156.75V188H312.5ZM281.25 156.75V125.5V94.25V63V31.75H250V63V94.25V125.5V156.75H281.25ZM656.25 188H625H593.75H562.5H531.25V156.75V125.5V94.25V63H562.5H593.75H625V31.75V0.5H656.25H687.5V31.75V63V94.25V125.5V156.75V188H656.25ZM625 156.75V125.5V94.25H593.75V125.5V156.75H625ZM750 188H718.75V156.75V125.5V94.25V63H750H781.25V94.25V125.5V156.75V188H750ZM750 0.5H781.25V31.75H750H718.75V0.5H750ZM875 188H843.75V156.75V125.5V94.25H812.5V63H843.75V31.75V0.5H875H906.25H937.5V31.75H906.25V63H937.5V94.25H906.25V125.5V156.75V188H875ZM1031.25 188H1000V156.75V125.5V94.25H968.75V63H1000V31.75V0.5H1031.25H1062.5H1093.75V31.75H1062.5V63H1093.75V94.25H1062.5V125.5V156.75V188H1031.25ZM1250 156.75H1281.25V188H1250H1218.75H1187.5H1156.25H1125V156.75V125.5V94.25V63V31.75V0.5H1156.25H1187.5H1218.75H1250H1281.25V31.75V63V94.25V125.5H1250H1218.75H1187.5V156.75H1218.75H1250ZM1218.75 94.25V63V31.75H1187.5V63V94.25H1218.75ZM1343.75 188H1312.5V156.75V125.5V94.25V63V31.75V0.5H1343.75H1375H1406.25H1437.5H1468.75V31.75V63H1437.5H1406.25V31.75H1375V63V94.25V125.5V156.75V188H1343.75ZM1625 188H1593.75V156.75V125.5V94.25V63V31.75H1562.5V63V94.25V125.5V156.75V188H1531.25H1500V156.75V125.5V94.25V63V31.75V0.5H1531.25H1562.5H1593.75H1625H1656.25V31.75V63V94.25V125.5V156.75V188H1625ZM1781.25 188H1750H1718.75V156.75V125.5V94.25H1687.5V63H1718.75V31.75V0.5H1750H1781.25V31.75V63H1812.5V94.25H1781.25V125.5V156.75H1812.5V188H1781.25ZM2093.75 188H2062.5H2031.25V156.75V125.5V94.25H2000V63H2031.25V31.75V0.5H2062.5H2093.75V31.75V63H2125V94.25H2093.75V125.5V156.75H2125V188H2093.75ZM2281.25 188H2250V156.75V125.5V94.25H2218.75V125.5V156.75V188H2187.5H2156.25V156.75V125.5V94.25V63V31.75V0.5H2187.5H2218.75V31.75V63H2250H2281.25H2312.5V94.25V125.5V156.75V188H2281.25ZM2468.75 188H2437.5H2406.25H2375H2343.75V156.75V125.5V94.25V63H2375H2406.25H2437.5V31.75H2406.25H2375V0.5H2406.25H2437.5H2468.75H2500V31.75V63V94.25V125.5V156.75V188H2468.75ZM2437.5 156.75V125.5V94.25H2406.25V125.5V156.75H2437.5ZM2656.25 188H2625V156.75V125.5V94.25V63V31.75H2593.75V63V94.25V125.5V156.75V188H2562.5H2531.25V156.75V125.5V94.25V63V31.75V0.5H2562.5H2593.75H2625H2656.25H2687.5V31.75V63V94.25V125.5V156.75V188H2656.25ZM2968.75 188H2937.5H2906.25V156.75V125.5V94.25H2875V63H2906.25V31.75V0.5H2937.5H2968.75V31.75V63H3000V94.25H2968.75V125.5V156.75H3000V188H2968.75ZM3156.25 188H3125V156.75V125.5V94.25H3093.75V125.5V156.75V188H3062.5H3031.25V156.75V125.5V94.25V63V31.75V0.5H3062.5H3093.75V31.75V63H3125H3156.25H3187.5V94.25V125.5V156.75V188H3156.25ZM3343.75 156.75H3375V188H3343.75H3312.5H3281.25H3250H3218.75V156.75V125.5V94.25V63V31.75V0.5H3250H3281.25H3312.5H3343.75H3375V31.75V63V94.25V125.5H3343.75H3312.5H3281.25V156.75H3312.5H3343.75ZM3312.5 94.25V63V31.75H3281.25V63V94.25H3312.5ZM3625 188H3593.75V156.75V125.5V94.25V63V31.75H3562.5V63V94.25V125.5V156.75V188H3531.25H3500V156.75V125.5V94.25V63V31.75H3468.75V63V94.25V125.5V156.75V188H3437.5H3406.25V156.75V125.5V94.25V63V31.75V0.5H3437.5H3468.75H3500H3531.25H3562.5H3593.75H3625H3656.25V31.75V63V94.25V125.5V156.75V188H3625ZM3718.75 156.75H3750V188H3718.75H3687.5V156.75H3718.75ZM3718.75 125.5H3687.5V94.25V63V31.75V0.5H3718.75H3750V31.75V63V94.25V125.5H3718.75Z" fill="white"/>
</svg>
