<svg width="68" height="45" viewBox="0 0 68 45" fill="none" xmlns="http://www.w3.org/2000/svg">
<path d="M64.4375 18.75H4.0625C2.09499 18.75 0.5 20.345 0.5 22.3125V22.6875C0.5 24.655 2.09499 26.25 4.0625 26.25H64.4375C66.405 26.25 68 24.655 68 22.6875V22.3125C68 20.345 66.405 18.75 64.4375 18.75Z" fill="white"/>
<path d="M64.4375 37.5H4.0625C2.09499 37.5 0.5 39.095 0.5 41.0625V41.4375C0.5 43.405 2.09499 45 4.0625 45H64.4375C66.405 45 68 43.405 68 41.4375V41.0625C68 39.095 66.405 37.5 64.4375 37.5Z" fill="white"/>
<path d="M64.4375 0H4.0625C2.09499 0 0.5 1.59498 0.5 3.5625V3.9375C0.5 5.90502 2.09499 7.5 4.0625 7.5H64.4375C66.405 7.5 68 5.90502 68 3.9375V3.5625C68 1.59498 66.405 0 64.4375 0Z" fill="white"/>
</svg>
