<svg width="2032" height="188" viewBox="0 0 2032 188" fill="none" xmlns="http://www.w3.org/2000/svg">
<path d="M93.75 188H62.5V156.75V125.5V94.25H31.25H0V63V31.75V0.5H31.25H62.5V31.75V63H93.75H125V31.75V0.5H156.25H187.5V31.75V63V94.25H156.25H125V125.5V156.75V188H93.75ZM343.75 188H312.5H281.25H250H218.75V156.75V125.5V94.25V63V31.75V0.5H250H281.25H312.5H343.75H375V31.75V63V94.25V125.5V156.75V188H343.75ZM312.5 156.75V125.5V94.25V63V31.75H281.25V63V94.25V125.5V156.75H312.5ZM531.25 188H500H468.75H437.5H406.25V156.75V125.5V94.25V63V31.75V0.5H437.5H468.75V31.75V63V94.25V125.5V156.75H500V125.5V94.25V63V31.75V0.5H531.25H562.5V31.75V63V94.25V125.5V156.75V188H531.25ZM625 188H593.75V156.75V125.5V94.25V63V31.75V0.5H625H656.25H687.5H718.75H750V31.75V63H718.75H687.5V31.75H656.25V63V94.25V125.5V156.75V188H625ZM1000 188H968.75V156.75V125.5V94.25H937.5V63H968.75V31.75V0.5H1000H1031.25H1062.5V31.75H1031.25V63H1062.5V94.25H1031.25V125.5V156.75V188H1000ZM1218.75 188H1187.5H1156.25H1125H1093.75V156.75V125.5V94.25V63H1125H1156.25H1187.5V31.75H1156.25H1125V0.5H1156.25H1187.5H1218.75H1250V31.75V63V94.25V125.5V156.75V188H1218.75ZM1187.5 156.75V125.5V94.25H1156.25V125.5V156.75H1187.5ZM1375 188H1343.75H1312.5V156.75V125.5V94.25H1281.25V63H1312.5V31.75V0.5H1343.75H1375V31.75V63H1406.25V94.25H1375V125.5V156.75H1406.25V188H1375ZM1562.5 156.75H1593.75V188H1562.5H1531.25H1500H1468.75H1437.5V156.75V125.5V94.25V63V31.75V0.5H1468.75H1500H1531.25H1562.5H1593.75V31.75V63V94.25V125.5H1562.5H1531.25H1500V156.75H1531.25H1562.5ZM1531.25 94.25V63V31.75H1500V63V94.25H1531.25ZM1812.5 188H1781.25V156.75V125.5V94.25V63H1812.5H1843.75V94.25V125.5V156.75V188H1812.5ZM1812.5 0.5H1843.75V31.75H1812.5H1781.25V0.5H1812.5ZM2000 188H1968.75H1937.5H1906.25H1875V156.75V125.5H1906.25H1937.5V156.75H1968.75V125.5V94.25H1937.5H1906.25H1875V63V31.75V0.5H1906.25H1937.5H1968.75H2000H2031.25V31.75H2000H1968.75H1937.5V63H1968.75H2000H2031.25V94.25V125.5V156.75V188H2000Z" fill="white"/>
</svg>
