<svg width="1563" height="251" viewBox="0 0 1563 251" fill="none" xmlns="http://www.w3.org/2000/svg">
<path d="M125 188H93.75H62.5H31.25H0V156.75V125.5V94.25V63V31.75V0.5H31.25H62.5V31.75V63V94.25V125.5V156.75H93.75V125.5V94.25V63V31.75V0.5H125H156.25V31.75V63V94.25V125.5V156.75V188H125ZM218.75 250.5H187.5V219.25V188V156.75V125.5V94.25V63V31.75V0.5H218.75H250H281.25H312.5H343.75V31.75V63V94.25V125.5V156.75V188H312.5H281.25H250V219.25V250.5H218.75ZM281.25 156.75V125.5V94.25V63V31.75H250V63V94.25V125.5V156.75H281.25ZM625 188H593.75H562.5V156.75V125.5V94.25H531.25V63H562.5V31.75V0.5H593.75H625V31.75V63H656.25V94.25H625V125.5V156.75H656.25V188H625ZM812.5 188H781.25H750H718.75H687.5V156.75V125.5V94.25V63V31.75V0.5H718.75H750H781.25H812.5H843.75V31.75V63V94.25V125.5V156.75V188H812.5ZM781.25 156.75V125.5V94.25V63V31.75H750V63V94.25V125.5V156.75H781.25ZM1156.25 250.5H1125H1093.75H1062.5H1031.25V219.25H1062.5H1093.75H1125V188H1093.75H1062.5H1031.25V156.75V125.5V94.25V63V31.75V0.5H1062.5H1093.75V31.75V63V94.25V125.5V156.75H1125V125.5V94.25V63V31.75V0.5H1156.25H1187.5V31.75V63V94.25V125.5V156.75V188V219.25V250.5H1156.25ZM1343.75 188H1312.5H1281.25H1250H1218.75V156.75V125.5V94.25V63V31.75V0.5H1250H1281.25H1312.5H1343.75H1375V31.75V63V94.25V125.5V156.75V188H1343.75ZM1312.5 156.75V125.5V94.25V63V31.75H1281.25V63V94.25V125.5V156.75H1312.5ZM1531.25 188H1500H1468.75H1437.5H1406.25V156.75V125.5V94.25V63V31.75V0.5H1437.5H1468.75V31.75V63V94.25V125.5V156.75H1500V125.5V94.25V63V31.75V0.5H1531.25H1562.5V31.75V63V94.25V125.5V156.75V188H1531.25Z" fill="white"/>
</svg>
