<svg width="288" height="32" viewBox="0 0 288 32" fill="none" xmlns="http://www.w3.org/2000/svg">
<path d="M3.2 0.199999H12.8V22.6H19.2V0.199999H32V29H0V3.4H3.2V0.199999ZM35.1875 0.199999H47.9875V6.6H51.1875V13H54.3875V0.199999H67.1875V29H54.3875V25.8H51.1875V22.6H47.9875V19.4H44.7875V13H41.5875V29H35.1875V0.199999ZM73.575 0.199999H95.975V3.4H99.175V25.8H95.975V29H70.375V3.4H73.575V0.199999ZM79.975 6.6V22.6H83.175V19.4H86.375V9.8H83.175V6.6H79.975ZM105.575 0.199999H127.975V9.8H115.175V13H124.775V16.2H115.175V19.4H127.975V29H102.375V3.4H105.575V0.199999ZM147.188 16.2H150.388V13H153.588V6.6H150.388V9.8H147.188V6.6H143.988V13H147.188V16.2ZM131.188 0.199999H159.988V3.4H163.188V19.4H153.588V22.6H163.188V29H150.388V25.8H143.988V22.6H140.788V29H131.188V0.199999ZM169.575 0.199999H198.375V13H188.775V29H175.975V13H166.375V3.4H169.575V0.199999ZM204.763 0.199999H230.363V29H220.763V19.4H211.163V29H201.562V3.4H204.763V0.199999ZM211.163 13V16.2H220.763V13H211.163ZM236.763 0.199999H246.363V16.2H255.963V29H233.562V3.4H236.763V0.199999ZM262.356 0.199999H284.756V9.8H271.956V13H281.556V16.2H271.956V19.4H284.756V29H259.156V3.4H262.356V0.199999Z" fill="white"/>
</svg>
